<svg id="P_shape" data-name="P shape" xmlns="http://www.w3.org/2000/svg" xmlns:xlink="http://www.w3.org/1999/xlink" width="86.656" height="120.188" viewBox="0 0 86.656 120.188">
  <defs>
    <style>
      .cls-1, .cls-2, .cls-3 {
        fill-rule: evenodd;
      }

      .cls-1 {
        fill: url(#linear-gradient);
      }

      .cls-2 {
        fill: url(#linear-gradient-2);
      }

      .cls-3 {
        fill: url(#linear-gradient-3);
      }
    </style>
    <linearGradient id="linear-gradient" x1="643.25" y1="185.25" x2="643.25" y2="305.438" gradientUnits="userSpaceOnUse">
      <stop offset="0" stop-color="#0b8558"/>
      <stop offset="1" stop-color="#13cc48"/>
    </linearGradient>
    <linearGradient id="linear-gradient-2" x1="600" y1="213.75" x2="672.594" y2="213.75" gradientUnits="userSpaceOnUse">
      <stop offset="0" stop-color="#12cd49"/>
      <stop offset="1" stop-color="#0a8559"/>
    </linearGradient>
    <linearGradient id="linear-gradient-3" x1="686.656" y1="241.219" x2="600" y2="241.219" gradientUnits="userSpaceOnUse">
      <stop offset="0" stop-color="#13cd48"/>
      <stop offset="1" stop-color="#0b8558"/>
    </linearGradient>
  </defs>
  <path id="p" class="cls-1" d="M600.1,228.455a43.208,43.208,0,1,1,43.208,43.208H629.615v5.506c0,9.924-9.457,28.271-29.612,28.271C600,305.44,600.1,252.318,600.1,228.455Zm29.565,0A13.643,13.643,0,1,1,643.308,242.1c-7.535,0-13.693.13-13.693,0.13S629.665,235.99,629.665,228.455Z" transform="translate(-600 -185.25)"/>
  <path id="gradient_1" data-name="gradient 1" class="cls-2" d="M600,228.455c0-17.353,13.329-43.174,43.174-43.174,41.334,0,37.028,56.947.131,56.947,2.735,0,13.642-2.428,13.642-13.963,0-12.1-9.414-28.107-28.368-28.107S601.266,214.777,600,228.455Z" transform="translate(-600 -185.25)"/>
  <path id="gradient_2" data-name="gradient 2" class="cls-3" d="M600,294.993s4.841-23.187,29.724-23.187h13.581c18.476,0,43.351-14.423,43.351-43.351,0-31.63-29.709-41.157-29.709-41.014,26.032,13.837,17.817,54.787-13.642,54.787H629.727C604.5,242.228,600,262.856,600,266.275v28.718Z" transform="translate(-600 -185.25)"/>
</svg>
