<svg id="v2_copy" data-name="v2 copy" xmlns="http://www.w3.org/2000/svg" xmlns:xlink="http://www.w3.org/1999/xlink" width="119.894" height="55.899" viewBox="0 0 257.781 120.188">
  <defs>
    <style>
      .cls-1, .cls-2, .cls-3, .cls-4 {
        fill-rule: evenodd;
      }

      .cls-2 {
        fill: url(#linear-gradient);
      }

      .cls-3 {
        fill: url(#linear-gradient-2);
      }

      .cls-4 {
        fill: url(#linear-gradient-3);
      }
    </style>
    <linearGradient id="linear-gradient" x1="643.265" y1="185.25" x2="643.265" y2="305.438" gradientUnits="userSpaceOnUse">
      <stop offset="0" stop-color="#0b8558"/>
      <stop offset="1" stop-color="#13cc48"/>
    </linearGradient>
    <linearGradient id="linear-gradient-2" x1="600" y1="213.75" x2="672.594" y2="213.75" gradientUnits="userSpaceOnUse">
      <stop offset="0" stop-color="#12cd49"/>
      <stop offset="1" stop-color="#0a8559"/>
    </linearGradient>
    <linearGradient id="linear-gradient-3" x1="686.656" y1="241.219" x2="600" y2="241.219" gradientUnits="userSpaceOnUse">
      <stop offset="0" stop-color="#13cd48"/>
      <stop offset="1" stop-color="#0b8558"/>
    </linearGradient>
  </defs>
  <path id="remialis_shape" data-name="remialis shape" class="cls-1" d="M692.817,251.943v-2.99h-6.276v22.66h6.571v-10.7a6.385,6.385,0,0,1,1.6-4.739,6.023,6.023,0,0,1,4.423-1.579q0.378,0,1.474.084v-6.065a11.807,11.807,0,0,0-4.612.842,7.308,7.308,0,0,0-3.18,2.485h0Zm34.073,8.424a12.241,12.241,0,0,0-1.537-6.212,10.457,10.457,0,0,0-4.233-4.107,13.431,13.431,0,0,0-12.193.063,11.068,11.068,0,0,0-4.338,4.17,11.581,11.581,0,0,0-1.58,6,11.421,11.421,0,0,0,1.6,6.023,10.952,10.952,0,0,0,4.549,4.148,14.785,14.785,0,0,0,6.781,1.5q6.148,0,9.35-3.665l-3.5-3.79a7.588,7.588,0,0,1-2.548,1.663,8.681,8.681,0,0,1-3.138.527,7.248,7.248,0,0,1-4.3-1.222,5.334,5.334,0,0,1-2.19-3.327h17.142q0.126-1.643.126-1.769h0Zm-11.751-6.781a5.538,5.538,0,0,1,3.707,1.285A5.431,5.431,0,0,1,720.7,258.3H709.538a5.375,5.375,0,0,1,1.853-3.453,5.655,5.655,0,0,1,3.748-1.264h0Zm45.151-4.97a11.088,11.088,0,0,0-4.654.969,9.3,9.3,0,0,0-3.517,2.737A7.7,7.7,0,0,0,749,249.564a9.738,9.738,0,0,0-4.338-.948,10.425,10.425,0,0,0-4.022.758,8.3,8.3,0,0,0-3.1,2.19v-2.611h-6.275v22.66h6.57V260.241a6.445,6.445,0,0,1,1.348-4.444,4.637,4.637,0,0,1,3.622-1.5q4.3,0,4.3,5.349v11.962h6.57V260.241a6.445,6.445,0,0,1,1.348-4.444,4.687,4.687,0,0,1,3.664-1.5,3.923,3.923,0,0,1,3.18,1.327,6.138,6.138,0,0,1,1.116,4.022v11.962h6.571V258.64q0-5.011-2.506-7.518a9.138,9.138,0,0,0-6.76-2.506h0Zm15.162,23h6.571v-22.66h-6.571v22.66Zm3.285-25.819a4.121,4.121,0,0,0,2.949-1.074A3.576,3.576,0,0,0,782.823,242a3.243,3.243,0,0,0-1.137-2.528,4.278,4.278,0,0,0-2.949-1.01,4.167,4.167,0,0,0-2.948,1.053,3.566,3.566,0,0,0,0,5.222,4.167,4.167,0,0,0,2.948,1.053h0Zm18.532,2.822a19.921,19.921,0,0,0-5.328.716,14.247,14.247,0,0,0-4.443,2.022l2.358,4.591a9.4,9.4,0,0,1,2.97-1.538,11.434,11.434,0,0,1,3.559-.568A5.754,5.754,0,0,1,800.3,255a4.189,4.189,0,0,1,1.3,3.306h-5.222q-4.971,0-7.35,1.811a5.9,5.9,0,0,0-2.38,4.97,6.355,6.355,0,0,0,1.011,3.538,6.751,6.751,0,0,0,2.927,2.443,10.717,10.717,0,0,0,4.528.885q5.055,0,6.907-3.159v2.822h6.15V258.682q0-5.054-2.822-7.56t-8.087-2.506h0Zm-0.5,18.911a4.454,4.454,0,0,1-2.717-.737,2.362,2.362,0,0,1-.99-2q0-2.654,4.044-2.653h4.506v2.316a4.264,4.264,0,0,1-1.853,2.3,5.72,5.72,0,0,1-2.99.779h0Zm17.352,4.086h6.57V240.361h-6.57v31.252Zm12.677,0h6.571v-22.66h-6.571v22.66Zm3.285-25.819a4.121,4.121,0,0,0,2.949-1.074A3.576,3.576,0,0,0,834.164,242a3.243,3.243,0,0,0-1.137-2.528,4.278,4.278,0,0,0-2.949-1.01,4.167,4.167,0,0,0-2.948,1.053,3.566,3.566,0,0,0,0,5.222,4.167,4.167,0,0,0,2.948,1.053h0Zm17.016,26.156a16.437,16.437,0,0,0,5.749-.906,8.068,8.068,0,0,0,3.685-2.548,5.979,5.979,0,0,0,1.264-3.749,5.442,5.442,0,0,0-1.306-3.875,6.844,6.844,0,0,0-3.074-1.916,39.044,39.044,0,0,0-4.549-.99,20.043,20.043,0,0,1-3.622-.8,1.5,1.5,0,0,1-1.137-1.474,1.733,1.733,0,0,1,1.052-1.516,6.643,6.643,0,0,1,3.159-.59,13.079,13.079,0,0,1,6.529,1.685l2.19-4.675a13.361,13.361,0,0,0-3.938-1.453,22.073,22.073,0,0,0-4.781-.527,15.458,15.458,0,0,0-5.622.927,8,8,0,0,0-3.623,2.59,6.206,6.206,0,0,0-1.242,3.812,5.507,5.507,0,0,0,1.327,3.959,7.115,7.115,0,0,0,3.137,1.937,33.6,33.6,0,0,0,4.591.969,16.918,16.918,0,0,1,3.5.716,1.461,1.461,0,0,1,1.137,1.39q0,2.064-4.169,2.064a15.364,15.364,0,0,1-4.212-.611,13.728,13.728,0,0,1-3.664-1.58l-2.191,4.718a14.433,14.433,0,0,0,4.3,1.748,22.025,22.025,0,0,0,5.518.695h0Z" transform="translate(-600 -185.25)"/>
  <g id="P_shape" data-name="P shape">
    <path id="p" class="cls-2" d="M600.1,228.455a43.208,43.208,0,1,1,43.208,43.208H629.615v5.506c0,9.924-9.457,28.271-29.612,28.271C600,305.44,600.1,252.318,600.1,228.455Zm29.565,0A13.643,13.643,0,1,1,643.308,242.1c-7.535,0-13.693.13-13.693,0.13S629.665,235.99,629.665,228.455Z" transform="translate(-600 -185.25)"/>
    <path id="gradient_1" data-name="gradient 1" class="cls-3" d="M600,228.455c0-17.353,13.329-43.174,43.174-43.174,41.334,0,37.028,56.947.131,56.947,2.735,0,13.642-2.428,13.642-13.963,0-12.1-9.414-28.107-28.368-28.107S601.266,214.777,600,228.455Z" transform="translate(-600 -185.25)"/>
    <path id="gradient_2" data-name="gradient 2" class="cls-4" d="M600,294.993s4.841-23.187,29.724-23.187h13.581c18.476,0,43.351-14.423,43.351-43.351,0-31.63-29.709-41.157-29.709-41.014,26.032,13.837,17.817,54.787-13.642,54.787H629.727C604.5,242.228,600,262.856,600,266.275v28.718Z" transform="translate(-600 -185.25)"/>
  </g>
</svg>
